<?xml version="1.0" encoding="UTF-8"?>
<svg id="Layer_1" data-name="Layer 1" xmlns="http://www.w3.org/2000/svg" viewBox="0 0 544.2 544.2">
  <defs>
    <style>
      .cls-1 {
        fill: #339ebf;
      }

      .cls-1, .cls-2 {
        stroke-width: 0px;
      }

      .cls-2 {
        fill: #fff;
      }
    </style>
  </defs>
  <path class="cls-1" d="m272.1,0C2.1,0,0,121.8,0,272.1s2.1,272.1,272.1,272.1,272.1-121.8,272.1-272.1S542.1,0,272.1,0Z"/>
  <path class="cls-2" d="m276.69,106.45c45.76,2.25,86.33,22.84,114.88,54.32,28.55,31.49,45.07,73.79,42.82,119.55-1.12,22.49-6.57,43.68-15.66,62.8-7.61,16.09-17.73,30.71-29.84,43.51l52.85,44.89-107.44-6.92c-10.99,4.76-22.66,8.39-34.86,10.64-12.46,2.34-25.35,3.29-38.58,2.68l-.52-.09c-45.76-2.25-86.33-22.84-114.88-54.32-28.46-31.31-44.89-73.53-42.82-119.03v-.52c2.25-45.76,22.84-86.33,54.32-114.88,31.31-28.46,73.53-44.89,119.03-42.82l.69.17h0Zm98.79,68.77c-24.65-27.25-59.77-45.07-99.39-47.14h-.52c-39.88-1.99-76.73,12.37-104.06,37.2-27.25,24.65-45.07,59.77-47.14,99.39l-.09.52c-1.99,39.88,12.37,76.64,37.2,104.06,24.65,27.25,59.77,45.07,99.39,47.14h.52c11.68.61,23.1-.26,34.08-2.34,11.25-2.16,22.14-5.62,32.35-10.21l2.42-1.12,47.58,3.03-21.54-18.25,9.17-8.3c13.93-12.63,25.43-27.94,33.56-45.24,7.87-16.61,12.63-35.03,13.67-54.58,1.99-39.88-12.37-76.73-37.2-104.15h0Z"/>
  <path class="cls-2" d="m272.1,238.28c18.68,0,33.82,15.14,33.82,33.82s-15.14,33.82-33.82,33.82-33.82-15.14-33.82-33.82,15.14-33.82,33.82-33.82Z"/>
</svg>