<svg xmlns="http://www.w3.org/2000/svg" id="Layer_1" data-name="Layer 1" viewBox="0 0 392.01 383.71"><defs><style>.cls-1{stroke-width:0}</style></defs><path d="M201.25.23c52.9 2.59 99.77 26.39 132.77 62.79 32.99 36.41 52.08 85.32 49.49 138.2-1.27 25.97-7.64 50.47-18.11 72.59-8.8 18.6-20.51 35.53-34.52 50.25l61.13 51.85-124.07-7.89c-12.74 5.51-26.23 9.7-40.27 12.35a191.185 191.185 0 0 1-44.59 3.11v.03l-.59-.05c-52.9-2.59-99.77-26.39-132.77-62.79C16.85 284.45-2.21 235.72.21 183.08H.2l.04-.6c2.61-52.9 26.39-99.77 62.79-132.75C99.25 16.85 147.98-2.22 200.64.21V.18l.61.05Zm114.26 79.51C286.96 48.26 246.44 27.6 200.66 25.2v.03l-.6-.04c-46.05-2.25-88.67 14.34-120.3 43.02-31.48 28.55-52.14 69.09-54.53 114.86h.03l-.05.59c-2.25 46.05 14.34 88.64 43.04 120.3 28.53 31.48 69.07 52.14 114.85 54.54v-.03l.59.04c13.48.67 26.69-.29 39.41-2.69 13.03-2.47 25.57-6.48 37.44-11.84l2.81-1.27 54.96 3.49-24.9-21.12 10.56-9.57c16.07-14.6 29.35-32.33 38.82-52.34 9.1-19.24 14.64-40.53 15.76-63.08 2.25-46.05-14.35-88.67-43.04-120.3v-.05Z" class="cls-1"/><path d="M191.19 152.6c21.59 0 39.08 17.51 39.08 39.11s-17.52 39.09-39.11 39.09-39.09-17.51-39.09-39.09 17.51-39.11 39.09-39.11h.03Z" class="cls-1"/></svg>